<svg width="265" height="67" viewBox="0 0 265 67" fill="none" xmlns="http://www.w3.org/2000/svg">
<g clip-path="url(#clip0_3145_3634)">
<path d="M78.1519 50.7307V22.3825H63.9556V18.7891H95.8972V22.3825H81.7453V50.7307H78.1519ZM97.7955 50.7307V16.5709H101.433V25H118.646C119.622 25 120.51 25.2514 121.308 25.7541C122.136 26.2273 122.787 26.878 123.26 27.7061C123.763 28.5047 124.014 29.3919 124.014 30.3679V50.7307H120.376V30.3679C120.376 29.8947 120.199 29.4955 119.844 29.1701C119.519 28.8152 119.119 28.6378 118.646 28.6378H103.208C102.735 28.6378 102.321 28.8152 101.966 29.1701C101.611 29.4955 101.433 29.8947 101.433 30.3679V50.7307H97.7955ZM126.009 50.7307V30.3679C126.009 29.3919 126.246 28.5047 126.719 27.7061C127.222 26.878 127.872 26.2273 128.671 25.7541C129.499 25.2514 130.401 25 131.377 25H145.84V28.6378H131.377C130.904 28.6378 130.49 28.8152 130.135 29.1701C129.81 29.4955 129.647 29.8947 129.647 30.3679V50.7307H126.009ZM152.748 50.7307C151.772 50.7307 150.87 50.4941 150.042 50.0209C149.243 49.5181 148.592 48.8675 148.09 48.0689C147.616 47.2408 147.38 46.3387 147.38 45.3627V36.0464H169.916V30.3679C169.916 29.8947 169.739 29.4955 169.384 29.1701C169.059 28.8152 168.66 28.6378 168.186 28.6378H147.38V25H168.186C169.192 25 170.094 25.2514 170.892 25.7541C171.721 26.2273 172.371 26.878 172.844 27.7061C173.347 28.5047 173.599 29.3919 173.599 30.3679V50.7307H152.748ZM152.748 47.0929H169.916V39.6842H151.018V45.3627C151.018 45.836 151.18 46.25 151.506 46.6049C151.861 46.9303 152.275 47.0929 152.748 47.0929ZM188.807 50.7307L174.61 25H178.869L190.936 47.1816L203.003 25H207.262L193.021 50.7307H188.807ZM213.727 50.7307C212.751 50.7307 211.849 50.4941 211.021 50.0209C210.223 49.5181 209.572 48.8675 209.069 48.0689C208.596 47.2408 208.359 46.3387 208.359 45.3627V30.3679C208.359 29.3919 208.596 28.5047 209.069 27.7061C209.572 26.878 210.223 26.2273 211.021 25.7541C211.849 25.2514 212.751 25 213.727 25H229.166C230.171 25 231.073 25.2514 231.872 25.7541C232.7 26.2273 233.351 26.878 233.824 27.7061C234.327 28.5047 234.578 29.3919 234.578 30.3679V45.3627C234.578 46.3387 234.327 47.2408 233.824 48.0689C233.351 48.8675 232.7 49.5181 231.872 50.0209C231.073 50.4941 230.171 50.7307 229.166 50.7307H213.727ZM213.727 47.0929H229.166C229.639 47.0929 230.038 46.9303 230.364 46.6049C230.719 46.25 230.896 45.836 230.896 45.3627V30.3679C230.896 29.8947 230.719 29.4955 230.364 29.1701C230.038 28.8152 229.639 28.6378 229.166 28.6378H213.727C213.254 28.6378 212.84 28.8152 212.485 29.1701C212.16 29.4955 211.997 29.8947 211.997 30.3679V45.3627C211.997 45.836 212.16 46.25 212.485 46.6049C212.84 46.9303 213.254 47.0929 213.727 47.0929ZM242.113 50.7307C241.137 50.7307 240.235 50.4941 239.407 50.0209C238.609 49.5181 237.958 48.8675 237.455 48.0689C236.982 47.2408 236.745 46.3387 236.745 45.3627V45.0078H240.383V45.3627C240.383 45.836 240.546 46.25 240.871 46.6049C241.226 46.9303 241.64 47.0929 242.113 47.0929H257.552C258.025 47.0929 258.424 46.9303 258.75 46.6049C259.104 46.25 259.282 45.836 259.282 45.3627V41.4144C259.282 40.9412 259.104 40.5419 258.75 40.2166C258.424 39.8617 258.025 39.6842 257.552 39.6842H242.113C241.137 39.6842 240.235 39.4476 239.407 38.9744C238.609 38.4716 237.958 37.821 237.455 37.0224C236.982 36.1943 236.745 35.2923 236.745 34.3163V30.3679C236.745 29.3919 236.982 28.5047 237.455 27.7061C237.958 26.878 238.609 26.2273 239.407 25.7541C240.235 25.2514 241.137 25 242.113 25H257.552C258.557 25 259.459 25.2514 260.258 25.7541C261.086 26.2273 261.737 26.878 262.21 27.7061C262.713 28.5047 262.964 29.3919 262.964 30.3679V30.7228H259.282V30.3679C259.282 29.8947 259.104 29.4955 258.75 29.1701C258.424 28.8152 258.025 28.6378 257.552 28.6378H242.113C241.64 28.6378 241.226 28.8152 240.871 29.1701C240.546 29.4955 240.383 29.8947 240.383 30.3679V34.3163C240.383 34.7895 240.546 35.2035 240.871 35.5584C241.226 35.8838 241.64 36.0464 242.113 36.0464H257.552C258.557 36.0464 259.459 36.2978 260.258 36.8006C261.086 37.2738 261.737 37.9245 262.21 38.7526C262.713 39.5511 262.964 40.4384 262.964 41.4144V45.3627C262.964 46.3387 262.713 47.2408 262.21 48.0689C261.737 48.8675 261.086 49.5181 260.258 50.0209C259.459 50.4941 258.557 50.7307 257.552 50.7307H242.113Z" fill="white"/>
<path d="M49.1042 17.5951L53.1583 20.6884V47.7529L33.1309 59.2875V64.0866L55.2415 51.3522C56.5305 50.6098 57.3246 49.2378 57.3246 47.7529V20.6884C57.3246 19.2035 56.5305 17.8315 55.2415 17.0891L52.5762 15.5171L49.1042 17.5951Z" fill="white"/>
<path d="M6.16631 47.7529L25.4952 59.849V64.0052L19.9401 60.5417L4.08315 51.3522C2.79409 50.6098 2 49.2378 2 47.7529L2.58046 40.4538L5.90359 38.3757L6.16631 47.7529Z" fill="white"/>
<path d="M6.16631 30.6094V20.6884L29.6623 7.15612L42.1604 14.1317L45.6323 12.0536L31.7455 3.55681C30.4564 2.8144 28.8682 2.8144 27.5792 3.55681L4.08315 17.0891C2.79409 17.8315 2 19.2035 2 20.6884V32.8342L6.16631 30.6094Z" fill="white"/>
<path d="M53.1583 20.6884H55.2389V19.6588L54.4204 19.0343L53.1583 20.6884ZM53.1583 47.7529L54.1967 49.5559L55.2389 48.9556V47.7529H53.1583ZM33.1309 59.2875L32.0925 57.4846L31.0503 58.0848V59.2875H33.1309ZM33.1309 64.0866H31.0503V67.6859L34.1693 65.8895L33.1309 64.0866ZM55.2415 51.3522L56.2799 53.1552L56.2799 53.1552L55.2415 51.3522ZM55.2415 17.0891L54.1845 18.8812L54.1938 18.8867L54.2031 18.892L55.2415 17.0891ZM52.5762 15.5171L53.6331 13.725L52.5683 13.0969L51.5076 13.7318L52.5762 15.5171ZM25.4952 59.849H27.5758V58.6967L26.5989 58.0853L25.4952 59.849ZM6.16631 47.7529L4.08652 47.8112L4.11773 48.9253L5.06256 49.5166L6.16631 47.7529ZM25.4952 64.0052L24.3944 65.7707L27.5758 67.7542V64.0052H25.4952ZM19.9401 60.5417L21.0409 58.7762L21.0124 58.7584L20.9833 58.7416L19.9401 60.5417ZM4.08315 51.3522L5.1264 49.5521L5.12154 49.5493L4.08315 51.3522ZM2 47.7529L-0.0740581 47.588L-0.0806062 47.6703V47.7529H2ZM2.58046 40.4538L1.47732 38.6897L0.589421 39.245L0.506404 40.2889L2.58046 40.4538ZM5.90359 38.3757L7.98338 38.3175L7.88161 34.6849L4.80045 36.6117L5.90359 38.3757ZM6.16631 30.6094L7.14637 32.4447L8.24691 31.857V30.6094H6.16631ZM6.16631 20.6884L5.12791 18.8854L4.0857 19.4857V20.6884H6.16631ZM29.6623 7.15612L30.6763 5.33934L29.6462 4.76439L28.6239 5.35316L29.6623 7.15612ZM42.1604 14.1317L41.1464 15.9485L42.1968 16.5347L43.2289 15.917L42.1604 14.1317ZM45.6323 12.0536L46.7008 13.8389L49.6508 12.0732L46.7182 10.2789L45.6323 12.0536ZM31.7455 3.55681L32.8314 1.78206L32.8078 1.76764L32.7839 1.75386L31.7455 3.55681ZM27.5792 3.55681L26.5408 1.75386L26.5408 1.75386L27.5792 3.55681ZM4.08315 17.0891L5.12155 18.892L5.12155 18.892L4.08315 17.0891ZM2 32.8342H-0.0806062V36.304L2.98007 34.6696L2 32.8342ZM3.64892 29.6325C2.64575 30.1929 2.28681 31.4604 2.84722 32.4636C3.40762 33.4667 4.67514 33.8257 5.67831 33.2653L3.64892 29.6325ZM3.68637 40.695C2.67192 41.2348 2.28708 42.4947 2.82679 43.5091C3.36651 44.5236 4.62641 44.9084 5.64086 44.3687L3.68637 40.695ZM25.4952 31.4489H27.5758V27.9852L24.5179 29.6121L25.4952 31.4489ZM35.2165 25.9074L34.148 24.1221L33.1359 24.7279V25.9074H35.2165ZM53.1583 20.6884L54.4204 19.0343L50.3663 15.941L49.1042 17.5951L47.8422 19.2492L51.8963 22.3425L53.1583 20.6884ZM53.1583 47.7529H55.2389V20.6884H53.1583H51.0777V47.7529H53.1583ZM33.1309 59.2875L34.1693 61.0905L54.1967 49.5559L53.1583 47.7529L52.1199 45.95L32.0925 57.4846L33.1309 59.2875ZM33.1309 64.0866H35.2115V59.2875H33.1309H31.0503V64.0866H33.1309ZM55.2415 51.3522L54.2031 49.5493L32.0925 62.2836L33.1309 64.0866L34.1693 65.8895L56.2799 53.1552L55.2415 51.3522ZM57.3246 47.7529H55.244C55.244 48.4919 54.8488 49.1774 54.2031 49.5493L55.2415 51.3522L56.2799 53.1552C58.2123 52.0422 59.4052 49.9836 59.4052 47.7529H57.3246ZM57.3246 20.6884H55.244V47.7529H57.3246H59.4052V20.6884H57.3246ZM55.2415 17.0891L54.2031 18.892C54.8488 19.2639 55.244 19.9494 55.244 20.6884H57.3246H59.4052C59.4052 18.4577 58.2123 16.3991 56.2799 15.2861L55.2415 17.0891ZM52.5762 15.5171L51.5192 17.3092L54.1845 18.8812L55.2415 17.0891L56.2985 15.297L53.6331 13.725L52.5762 15.5171ZM49.1042 17.5951L50.1728 19.3804L53.6447 17.3023L52.5762 15.5171L51.5076 13.7318L48.0357 15.8099L49.1042 17.5951ZM25.4952 59.849L26.5989 58.0853L7.27005 45.9892L6.16631 47.7529L5.06256 49.5166L24.3914 61.6128L25.4952 59.849ZM25.4952 64.0052H27.5758V59.849H25.4952H23.4145V64.0052H25.4952ZM19.9401 60.5417L18.8393 62.3073L24.3944 65.7707L25.4952 64.0052L26.5959 62.2396L21.0409 58.7762L19.9401 60.5417ZM4.08315 51.3522L3.03991 53.1524L18.8968 62.3419L19.9401 60.5417L20.9833 58.7416L5.12639 49.5521L4.08315 51.3522ZM2 47.7529H-0.0806062C-0.0806062 49.9836 1.11235 52.0422 3.04476 53.1552L4.08315 51.3522L5.12154 49.5493C4.47583 49.1774 4.08061 48.4919 4.08061 47.7529H2ZM2.58046 40.4538L0.506404 40.2889L-0.0740581 47.588L2 47.7529L4.07406 47.9179L4.65452 40.6187L2.58046 40.4538ZM5.90359 38.3757L4.80045 36.6117L1.47732 38.6897L2.58046 40.4538L3.6836 42.2179L7.00673 40.1398L5.90359 38.3757ZM6.16631 47.7529L8.2461 47.6946L7.98338 38.3175L5.90359 38.3757L3.8238 38.434L4.08652 47.8112L6.16631 47.7529ZM6.16631 30.6094H8.24691V20.6884H6.16631H4.0857V30.6094H6.16631ZM6.16631 20.6884L7.2047 22.4913L30.7007 8.95908L29.6623 7.15612L28.6239 5.35316L5.12791 18.8854L6.16631 20.6884ZM29.6623 7.15612L28.6483 8.97291L41.1464 15.9485L42.1604 14.1317L43.1744 12.3149L30.6763 5.33934L29.6623 7.15612ZM42.1604 14.1317L43.2289 15.917L46.7008 13.8389L45.6323 12.0536L44.5638 10.2684L41.0918 12.3464L42.1604 14.1317ZM45.6323 12.0536L46.7182 10.2789L32.8314 1.78206L31.7455 3.55681L30.6596 5.33157L44.5464 13.8284L45.6323 12.0536ZM31.7455 3.55681L32.7839 1.75386C30.852 0.64124 28.4726 0.64124 26.5408 1.75386L27.5792 3.55681L28.6176 5.35977C29.2638 4.98755 30.0608 4.98755 30.7071 5.35977L31.7455 3.55681ZM27.5792 3.55681L26.5408 1.75386L3.04476 15.2861L4.08315 17.0891L5.12155 18.892L28.6176 5.35977L27.5792 3.55681ZM4.08315 17.0891L3.04476 15.2861C1.11236 16.3991 -0.0806062 18.4577 -0.0806062 20.6884H2H4.08061C4.08061 19.9494 4.47583 19.2639 5.12155 18.892L4.08315 17.0891ZM2 20.6884H-0.0806062V32.8342H2H4.08061V20.6884H2ZM2 32.8342L2.98007 34.6696L7.14637 32.4447L6.16631 30.6094L5.18624 28.7741L1.01993 30.9989L2 32.8342ZM4.66362 31.4489L5.67831 33.2653L40.3975 13.87L39.3828 12.0536L38.3682 10.2372L3.64892 29.6325L4.66362 31.4489ZM4.66362 42.5319L5.64086 44.3687L26.4724 33.2857L25.4952 31.4489L24.5179 29.6121L3.68637 40.695L4.66362 42.5319ZM25.4952 60.5417H27.5758V31.4489H25.4952H23.4145V60.5417H25.4952ZM35.2165 60.5417H37.2971V25.9074H35.2165H33.1359V60.5417H35.2165ZM49.1042 17.5951L48.0357 15.8099L34.148 24.1221L35.2165 25.9074L36.2851 27.6926L50.1728 19.3804L49.1042 17.5951Z" fill="white"/>
</g>
<defs>
<clipPath id="clip0_3145_3634">
<rect width="265" height="67" fill="white"/>
</clipPath>
</defs>
</svg>
